<?xml version="1.0" encoding="utf-8"?>
<!-- Generator: Adobe Illustrator 26.0.1, SVG Export Plug-In . SVG Version: 6.00 Build 0)  -->
<svg version="1.1" id="Layer_1" xmlns="http://www.w3.org/2000/svg" xmlns:xlink="http://www.w3.org/1999/xlink" x="0px" y="0px"
	 viewBox="0 0 82 82" style="enable-background:new 0 0 82 82;" xml:space="preserve">
<style type="text/css">
	.st0{fill:#63AF66;}
</style>
<path class="st0" d="M41,10.2C24,10.2,10.2,24,10.2,41C10.2,58,24,71.8,41,71.8C58,71.8,71.8,58,71.8,41C71.8,24,58,10.2,41,10.2z
	 M59,43H43v16c0,1.1-0.9,2-2,2s-2-0.9-2-2V43H23c-1.1,0-2-0.9-2-2c0-1.1,0.9-2,2-2h16V23c0-1.1,0.9-2,2-2s2,0.9,2,2v16h16
	c1.1,0,2,0.9,2,2C61,42.1,60.1,43,59,43z"/>
</svg>
