<svg width="20" height="18" viewBox="0 0 20 18" fill="none" xmlns="http://www.w3.org/2000/svg">
<path d="M18 2H15L13 0H7L5 2H2C1.46957 2 0.960859 2.21071 0.585786 2.58579C0.210714 2.96086 0 3.46957 0 4V16C0 16.5304 0.210714 17.0391 0.585786 17.4142C0.960859 17.7893 1.46957 18 2 18H18C18.5304 18 19.0391 17.7893 19.4142 17.4142C19.7893 17.0391 20 16.5304 20 16V4C20 3.46957 19.7893 2.96086 19.4142 2.58579C19.0391 2.21071 18.5304 2 18 2ZM10 15C8.92 15 7.86 14.65 7 14L8.44 12.56C8.91 12.85 9.45 13 10 13C10.7956 13 11.5587 12.6839 12.1213 12.1213C12.6839 11.5587 13 10.7956 13 10C13 9.20435 12.6839 8.44129 12.1213 7.87868C11.5587 7.31607 10.7956 7 10 7C8.74 7 7.6 7.8 7.18 9H9L6 12L3 9H5.1C5.65 6.29 8.29 4.55 11 5.1C13.7 5.65 15.45 8.29 14.9 11C14.42 13.33 12.38 15 10 15Z" fill="black"/>
</svg>
