<svg width="45" height="45" viewBox="0 0 45 45" fill="none" xmlns="http://www.w3.org/2000/svg">
<path d="M40.2562 8.15625L37.7437 7.10625V24.0375L42.2999 13.05C43.0687 11.1375 42.1874 8.94375 40.2562 8.15625ZM3.69368 15.0938L12.9937 37.5C13.5749 38.9437 14.9437 39.825 16.3874 39.8625C16.8749 39.8625 17.3812 39.7687 17.8687 39.5625L31.6874 33.8437C33.0937 33.2625 33.9562 31.875 33.9937 30.4875C34.0124 30 33.9187 29.4562 33.7499 28.9687L24.3749 6.5625C23.8312 5.11875 22.4437 4.2375 20.9812 4.21875C20.4937 4.21875 20.0062 4.33125 19.5374 4.5L5.73743 10.2187C3.82493 11.0062 2.90618 13.2 3.69368 15.0938ZM33.9749 7.96875C33.9749 6.97419 33.5798 6.02036 32.8766 5.3171C32.1733 4.61384 31.2195 4.21875 30.2249 4.21875H27.5062L33.9749 19.8562" fill="#63AF66"/>
</svg>
