<svg width="33" height="33" viewBox="0 0 33 33" fill="none" xmlns="http://www.w3.org/2000/svg">
<path d="M16.4985 3.08945C9.10641 3.08945 3.09229 9.10357 3.09229 16.4957C3.09229 23.8878 9.10641 29.9019 16.4985 29.9019C23.8907 29.9019 29.9048 23.8878 29.9048 16.4957C29.9048 9.10357 23.8907 3.08945 16.4985 3.08945ZM23.4756 12.0027L14.8131 22.3152C14.7181 22.4283 14.5998 22.5198 14.4664 22.5833C14.3329 22.6468 14.1874 22.6808 14.0396 22.6832H14.0222C13.8777 22.6831 13.7348 22.6527 13.6028 22.5939C13.4707 22.535 13.3526 22.4491 13.2559 22.3416L9.5434 18.2166C9.44911 18.1166 9.37577 17.9988 9.32768 17.87C9.27959 17.7413 9.25772 17.6042 9.26335 17.4669C9.26899 17.3295 9.30202 17.1947 9.3605 17.0703C9.41898 16.946 9.50174 16.8345 9.6039 16.7426C9.70606 16.6507 9.82557 16.5801 9.95541 16.535C10.0852 16.4899 10.2228 16.4712 10.3599 16.48C10.4971 16.4889 10.6311 16.525 10.7541 16.5864C10.8771 16.6477 10.9866 16.733 11.0761 16.8373L13.9952 20.0806L21.8965 10.6762C22.0737 10.4713 22.3245 10.3444 22.5945 10.3229C22.8646 10.3013 23.1323 10.387 23.3397 10.5612C23.5472 10.7355 23.6777 10.9844 23.7032 11.2541C23.7286 11.5238 23.6468 11.7927 23.4756 12.0027Z" fill="#63AF66"/>
</svg>
