<?xml version="1.0" encoding="utf-8"?>
<!-- Generator: Adobe Illustrator 26.0.1, SVG Export Plug-In . SVG Version: 6.00 Build 0)  -->
<svg version="1.1" id="Layer_1" xmlns="http://www.w3.org/2000/svg" xmlns:xlink="http://www.w3.org/1999/xlink" x="0px" y="0px"
	 viewBox="0 0 38 38" style="enable-background:new 0 0 38 38;" xml:space="preserve">
<style type="text/css">
	.st0{fill:#63AF66;}
</style>
<path class="st0" d="M30.7,5.3H7.3c-1.1,0-2,0.9-2,2v3.3c0,0.5,0.2,1,0.6,1.4l7.3,7.3V31c0,1,1,1.7,2,1.4l8.5-2.8
	c0.6-0.2,1-0.8,1-1.4v-8.7l7.3-7.3c0.4-0.4,0.6-0.9,0.6-1.4V7.3C32.7,6.2,31.8,5.3,30.7,5.3z M23.3,18c-0.4,0.4-0.6,0.9-0.6,1.4v8.4
	l-7.5,2.5V19.4c0-0.5-0.2-1-0.6-1.4l-7.3-7.3V7.3h23.3v3.3L23.3,18z"/>
</svg>
