<svg width="38" height="38" viewBox="0 0 38 38" fill="none" xmlns="http://www.w3.org/2000/svg">
<path d="M14.9081 31.4473L15.2243 32.396H15.2243L14.9081 31.4473ZM23.4081 28.614L23.0919 27.6653L23.0919 27.6653L23.4081 28.614ZM31.3738 11.3762L30.6666 10.6691L31.3738 11.3762ZM24.0429 18.7071L24.75 19.4142L24.0429 18.7071ZM13.9571 18.7071L14.6642 18L13.9571 18.7071ZM7.33331 7.33334H30.6666V5.33334H7.33331V7.33334ZM7.33331 10.6691V7.33334H5.33331V10.6691H7.33331ZM14.6642 18L7.33331 10.6691L5.9191 12.0833L13.25 19.4142L14.6642 18ZM13.25 19.4142V30.973H15.25V19.4142H13.25ZM13.25 30.973C13.25 31.9968 14.253 32.7198 15.2243 32.396L14.5919 30.4986C14.9156 30.3907 15.25 30.6317 15.25 30.973H13.25ZM15.2243 32.396L23.7243 29.5627L23.0919 27.6653L14.5919 30.4986L15.2243 32.396ZM23.7243 29.5627C24.3368 29.3585 24.75 28.7853 24.75 28.1396H22.75C22.75 27.9244 22.8877 27.7334 23.0919 27.6653L23.7243 29.5627ZM24.75 28.1396V19.4142H22.75V28.1396H24.75ZM30.6666 10.6691L23.3358 18L24.75 19.4142L32.0809 12.0833L30.6666 10.6691ZM30.6666 7.33334V10.6691H32.6666V7.33334H30.6666ZM32.0809 12.0833C32.4559 11.7083 32.6666 11.1996 32.6666 10.6691H30.6666L32.0809 12.0833ZM24.75 19.4142V19.4142L23.3358 18C22.9607 18.3751 22.75 18.8838 22.75 19.4142H24.75ZM13.25 19.4142H15.25C15.25 18.8838 15.0393 18.3751 14.6642 18L13.25 19.4142ZM5.33331 10.6691C5.33331 11.1996 5.54403 11.7083 5.9191 12.0833L7.33331 10.6691H7.33331H5.33331ZM30.6666 7.33334H32.6666C32.6666 6.22877 31.7712 5.33334 30.6666 5.33334V7.33334ZM7.33331 5.33334C6.22874 5.33334 5.33331 6.22877 5.33331 7.33334H7.33331V7.33334V5.33334Z" fill="#63AF66"/>
</svg>
