<?xml version="1.0" encoding="utf-8"?>
<!-- Generator: Adobe Illustrator 26.0.1, SVG Export Plug-In . SVG Version: 6.00 Build 0)  -->
<svg version="1.1" id="Layer_1" xmlns="http://www.w3.org/2000/svg" xmlns:xlink="http://www.w3.org/1999/xlink" x="0px" y="0px"
	 viewBox="0 0 46 46" style="enable-background:new 0 0 46 46;" xml:space="preserve">
<style type="text/css">
	.st0{fill:#63AF66;}
</style>
<g>
	<path class="st0" d="M34.3,37.4H11.7c-2.1,0-3.2,0-4.1-0.9c-0.9-0.9-0.9-2-0.9-4.1V13.6c0-2.1,0-3.2,0.9-4.1c0.9-0.9,2-0.9,4.1-0.9
		h5.8c0.9,0,1.4,0,2,0.2C20,9,20.4,9.4,21,10l3.4,3.4c0.5,0.5,0.7,0.7,0.9,0.8s0.5,0.1,1.2,0.1h7.8c2.1,0,3.2,0,4.1,0.9
		c0.9,0.9,0.9,2,0.9,4.1v13.1c0,2.1,0,3.2-0.9,4.1C37.6,37.4,36.4,37.4,34.3,37.4z M11.7,10.6c-1.5,0-2.4,0-2.7,0.3
		c-0.3,0.3-0.3,1.3-0.3,2.7v18.8c0,1.5,0,2.4,0.3,2.7c0.3,0.3,1.3,0.3,2.7,0.3h22.7c1.5,0,2.4,0,2.7-0.3c0.3-0.3,0.3-1.3,0.3-2.7
		V19.3c0-1.5,0-2.4-0.3-2.7c-0.3-0.3-1.3-0.3-2.7-0.3h-7.8c-0.9,0-1.4,0-2-0.2c-0.6-0.2-0.9-0.6-1.6-1.2l-3.4-3.4
		c-0.5-0.5-0.7-0.7-0.9-0.8c-0.2-0.1-0.6-0.1-1.2-0.1H11.7z"/>
</g>
</svg>
