<svg width="27" height="26" viewBox="0 0 27 26" fill="none" xmlns="http://www.w3.org/2000/svg">
<path d="M13.5 21.6667C11.1131 21.6667 8.82387 20.7536 7.13604 19.1283C5.44821 17.5029 4.5 15.2985 4.5 13C4.5 10.7015 5.44821 8.49706 7.13604 6.87175C8.82387 5.24643 11.1131 4.33334 13.5 4.33334C15.8869 4.33334 18.1761 5.24643 19.864 6.87175C21.5518 8.49706 22.5 10.7015 22.5 13C22.5 15.2985 21.5518 17.5029 19.864 19.1283C18.1761 20.7536 15.8869 21.6667 13.5 21.6667ZM13.5 2.16667C12.0226 2.16667 10.5597 2.44688 9.19481 2.99131C7.8299 3.53574 6.58971 4.33371 5.54505 5.33968C3.43526 7.37133 2.25 10.1268 2.25 13C2.25 15.8732 3.43526 18.6287 5.54505 20.6603C6.58971 21.6663 7.8299 22.4643 9.19481 23.0087C10.5597 23.5531 12.0226 23.8333 13.5 23.8333C16.4837 23.8333 19.3452 22.692 21.455 20.6603C23.5647 18.6287 24.75 15.8732 24.75 13C24.75 11.5774 24.459 10.1686 23.8936 8.85427C23.3283 7.53991 22.4996 6.34565 21.455 5.33968C20.4103 4.33371 19.1701 3.53574 17.8052 2.99131C16.4403 2.44688 14.9774 2.16667 13.5 2.16667Z" fill="#63AF66"/>
</svg>
