<svg width="27" height="27" viewBox="0 0 27 27" fill="none" xmlns="http://www.w3.org/2000/svg">
<path d="M13.5 22.5C11.1131 22.5 8.82387 21.5518 7.13604 19.864C5.44821 18.1761 4.5 15.8869 4.5 13.5C4.5 11.1131 5.44821 8.82387 7.13604 7.13604C8.82387 5.44821 11.1131 4.5 13.5 4.5C15.8869 4.5 18.1761 5.44821 19.864 7.13604C21.5518 8.82387 22.5 11.1131 22.5 13.5C22.5 15.8869 21.5518 18.1761 19.864 19.864C18.1761 21.5518 15.8869 22.5 13.5 22.5ZM13.5 2.25C12.0226 2.25 10.5597 2.54099 9.19481 3.10636C7.8299 3.67172 6.58971 4.50039 5.54505 5.54505C3.43526 7.65483 2.25 10.5163 2.25 13.5C2.25 16.4837 3.43526 19.3452 5.54505 21.455C6.58971 22.4996 7.8299 23.3283 9.19481 23.8936C10.5597 24.459 12.0226 24.75 13.5 24.75C16.4837 24.75 19.3452 23.5647 21.455 21.455C23.5647 19.3452 24.75 16.4837 24.75 13.5C24.75 12.0226 24.459 10.5597 23.8936 9.19481C23.3283 7.8299 22.4996 6.58971 21.455 5.54505C20.4103 4.50039 19.1701 3.67172 17.8052 3.10636C16.4403 2.54099 14.9774 2.25 13.5 2.25ZM13.5 7.875C12.0082 7.875 10.5774 8.46763 9.52252 9.52252C8.46763 10.5774 7.875 12.0082 7.875 13.5C7.875 14.9918 8.46763 16.4226 9.52252 17.4775C10.5774 18.5324 12.0082 19.125 13.5 19.125C14.9918 19.125 16.4226 18.5324 17.4775 17.4775C18.5324 16.4226 19.125 14.9918 19.125 13.5C19.125 12.0082 18.5324 10.5774 17.4775 9.52252C16.4226 8.46763 14.9918 7.875 13.5 7.875Z" fill="#63AF66"/>
</svg>
