<?xml version="1.0" encoding="utf-8"?>
<!-- Generator: Adobe Illustrator 26.0.1, SVG Export Plug-In . SVG Version: 6.00 Build 0)  -->
<svg version="1.1" id="Layer_1" xmlns="http://www.w3.org/2000/svg" xmlns:xlink="http://www.w3.org/1999/xlink" x="0px" y="0px"
	 viewBox="0 0 43 43" style="enable-background:new 0 0 43 43;" xml:space="preserve">
<g>
	<path d="M29.7,37.6h-2v-6.8c0-1.5,0-2.4-0.3-2.7c-0.3-0.3-1.3-0.3-2.7-0.3h-8.1c-1.5,0-2.4,0-2.7,0.3c-0.3,0.3-0.3,1.3-0.3,2.7v6.8
		h-2v-6.8c0-2.1,0-3.2,0.9-4.1c0.9-0.9,2-0.9,4.1-0.9h8.1c2.1,0,3.2,0,4.1,0.9c0.9,0.9,0.9,2,0.9,4.1V37.6z"/>
</g>
<g>
	<path d="M21.5,15.3h-9c-0.6,0-1-0.4-1-1s0.4-1,1-1h9c0.6,0,1,0.4,1,1S22.1,15.3,21.5,15.3z"/>
</g>
<g>
	<path d="M31.6,38.6H11.4c-3,0-4.7,0-5.8-1.2s-1.2-2.8-1.2-5.8V11.4c0-3,0-4.7,1.2-5.8c1.2-1.2,2.8-1.2,5.8-1.2h18.3
		c0.5,0,0.8,0,1.2,0.2s0.6,0.4,0.9,0.7l6,6c0.3,0.3,0.6,0.6,0.7,0.9c0.2,0.4,0.2,0.7,0.2,1.2v18.3c0,3,0,4.7-1.2,5.8
		S34.6,38.6,31.6,38.6z M11.4,6.4C8.7,6.4,7.5,6.4,7,7c-0.6,0.6-0.6,1.8-0.6,4.4v20.3c0,2.7,0,3.9,0.6,4.4s1.8,0.6,4.4,0.6h20.2
		c2.7,0,3.9,0,4.4-0.6s0.6-1.8,0.6-4.4V13.4c0-0.2,0-0.3,0-0.4c0,0-0.1-0.1-0.3-0.3l-6-6c-0.1-0.1-0.2-0.2-0.3-0.3c0,0-0.2,0-0.4,0
		H11.4z"/>
</g>
</svg>
