<svg width="43" height="43" viewBox="0 0 43 43" fill="none" xmlns="http://www.w3.org/2000/svg">
<path d="M28.6667 37.625V30.875C28.6667 28.9894 28.6667 28.0466 28.081 27.4608C27.4952 26.875 26.5524 26.875 24.6667 26.875H16.5417C14.6561 26.875 13.7133 26.875 13.1275 27.4608C12.5417 28.0466 12.5417 28.9894 12.5417 30.875V37.625" stroke="#000" stroke-width="2"/>
<path d="M12.5417 14.3333H21.5001" stroke="#000" stroke-width="2" stroke-linecap="round"/>
<path d="M5.375 11.375C5.375 8.54657 5.375 7.13236 6.25368 6.25368C7.13236 5.375 8.54657 5.375 11.375 5.375H29.6299C30.0387 5.375 30.243 5.375 30.4268 5.45112C30.6106 5.52724 30.7551 5.67176 31.0441 5.96079L37.0392 11.9559C37.3282 12.2449 37.4728 12.3894 37.5489 12.5732C37.625 12.757 37.625 12.9613 37.625 13.3701V31.625C37.625 34.4534 37.625 35.8676 36.7463 36.7463C35.8676 37.625 34.4534 37.625 31.625 37.625H11.375C8.54657 37.625 7.13236 37.625 6.25368 36.7463C5.375 35.8676 5.375 34.4534 5.375 31.625V11.375Z" stroke="#63AF66" stroke-width="2"/>
</svg>
