<svg width="41" height="41" viewBox="0 0 41 41" fill="none" xmlns="http://www.w3.org/2000/svg">
<path d="M40.4201 37.58L33.0001 30.22C35.8803 26.6288 37.2751 22.0706 36.8977 17.4826C36.5203 12.8946 34.3994 8.62556 30.9711 5.55328C27.5428 2.481 23.0677 0.839012 18.4659 0.964933C13.8641 1.09085 9.4855 2.97512 6.23034 6.23028C2.97518 9.48544 1.09091 13.8641 0.964994 18.4658C0.839073 23.0676 2.48107 27.5427 5.55334 30.971C8.62562 34.3993 12.8947 36.5202 17.4827 36.8976C22.0706 37.275 26.6289 35.8802 30.2201 33L37.5801 40.36C37.766 40.5475 37.9872 40.6962 38.2309 40.7978C38.4746 40.8993 38.736 40.9516 39.0001 40.9516C39.2641 40.9516 39.5255 40.8993 39.7692 40.7978C40.0129 40.6962 40.2341 40.5475 40.4201 40.36C40.7805 39.9871 40.982 39.4887 40.982 38.97C40.982 38.4513 40.7805 37.9529 40.4201 37.58ZM19.0001 33C16.2311 33 13.5244 32.1789 11.2221 30.6406C8.91978 29.1022 7.12537 26.9157 6.06574 24.3576C5.00611 21.7994 4.72887 18.9845 5.26906 16.2687C5.80925 13.553 7.14262 11.0584 9.10056 9.1005C11.0585 7.14256 13.5531 5.80919 16.2688 5.269C18.9845 4.7288 21.7995 5.00605 24.3576 6.06568C26.9158 7.12531 29.1023 8.91972 30.6406 11.222C32.179 13.5243 33.0001 16.2311 33.0001 19C33.0001 22.713 31.5251 26.274 28.8995 28.8995C26.274 31.525 22.7131 33 19.0001 33Z" fill="#63AF66"/>
</svg>
