<?xml version="1.0" encoding="utf-8"?>
<!-- Generator: Adobe Illustrator 26.0.1, SVG Export Plug-In . SVG Version: 6.00 Build 0)  -->
<svg version="1.1" id="Layer_1" xmlns="http://www.w3.org/2000/svg" xmlns:xlink="http://www.w3.org/1999/xlink" x="0px" y="0px"
	 viewBox="0 0 47 48" style="enable-background:new 0 0 47 48;" xml:space="preserve">
<style type="text/css">
	.st0{fill:#63AF66;}
</style>
<g>
	<path class="st0" d="M25,15H9c-0.6,0-1-0.4-1-1s0.4-1,1-1h16c0.6,0,1,0.4,1,1S25.6,15,25,15z"/>
</g>
<g>
	<path class="st0" d="M21,25H9c-0.6,0-1-0.4-1-1s0.4-1,1-1h12c0.6,0,1,0.4,1,1S21.6,25,21,25z"/>
</g>
<g>
	<path class="st0" d="M17,35H9c-0.6,0-1-0.4-1-1s0.4-1,1-1h8c0.6,0,1,0.4,1,1S17.6,35,17,35z"/>
</g>
<g>
	<path class="st0" d="M37,37C37,37,37,37,37,37L37,37c-0.1,0-0.3,0-0.4-0.1c-0.1,0-0.2-0.1-0.3-0.2l-6-6c-0.4-0.4-0.4-1,0-1.4
		s1-0.4,1.4,0l4.3,4.3V12c0-0.6,0.4-1,1-1s1,0.4,1,1v21.6l4.3-4.3c0.4-0.4,1-0.4,1.4,0s0.4,1,0,1.4l-6,6c-0.1,0.1-0.2,0.2-0.3,0.2
		C37.3,37,37.1,37,37,37L37,37C37,37,37,37,37,37z"/>
</g>
</svg>
