<?xml version="1.0" encoding="utf-8"?>
<!-- Generator: Adobe Illustrator 26.0.1, SVG Export Plug-In . SVG Version: 6.00 Build 0)  -->
<svg version="1.1" id="Layer_1" xmlns="http://www.w3.org/2000/svg" xmlns:xlink="http://www.w3.org/1999/xlink" x="0px" y="0px"
	 viewBox="0 0 24 24" style="enable-background:new 0 0 24 24;" xml:space="preserve">
<g>
	<path d="M10,16c-0.6,0-1-0.4-1-1v-3c0-0.6,0.4-1,1-1s1,0.4,1,1v3C11,15.6,10.6,16,10,16z"/>
</g>
<g>
	<path d="M14,16c-0.6,0-1-0.4-1-1v-3c0-0.6,0.4-1,1-1s1,0.4,1,1v3C15,15.6,14.6,16,14,16z"/>
</g>
<g>
	<path d="M14,21h-4c-2.1,0-3.2,0-4.1-0.9S5,18.1,5,16v-6c0-0.7,0-1.2-0.1-1.4C4.8,8.4,4.6,8.2,4.4,8.1C4.2,8,3.7,8,3,8V6h18v2
		c-0.7,0-1.2,0-1.4,0.1c-0.2,0.1-0.4,0.3-0.5,0.5C19,8.8,19,9.3,19,10v6c0,2.1,0,3.2-0.9,4.1S16.1,21,14,21z M6.8,8
		C7,8.5,7,9.1,7,10v6c0,1.5,0,2.4,0.3,2.7S8.5,19,10,19h4c1.5,0,2.4,0,2.7-0.3S17,17.5,17,16v-6c0-0.9,0-1.5,0.2-2H6.8z"/>
</g>
<g>
	<path d="M10.1,4.4c-0.3,0-0.5-0.1-0.7-0.3C9,3.6,9,3,9.4,2.6c0.3-0.2,0.6-0.4,1.2-0.5c0.8-0.2,2-0.2,2.8,0c0.6,0.1,0.9,0.3,1.2,0.5
		c0.4,0.4,0.4,1,0,1.4c-0.4,0.4-0.9,0.4-1.3,0.1c0,0-0.1,0-0.3-0.1C12.5,4,11.5,4,11,4.1c-0.2,0-0.3,0.1-0.3,0.1
		C10.5,4.3,10.3,4.4,10.1,4.4z M10.7,4.2L10.7,4.2L10.7,4.2z M10.7,4.1C10.7,4.1,10.7,4.1,10.7,4.1C10.7,4.1,10.7,4.1,10.7,4.1z
		 M13.2,4.1C13.2,4.1,13.2,4.1,13.2,4.1C13.2,4.1,13.2,4.1,13.2,4.1z"/>
</g>
</svg>
